<mxfile host="Electron" modified="2023-10-04T09:24:42.130Z" agent="5.0 (Windows NT 10.0; Win64; x64) AppleWebKit/537.36 (KHTML, like Gecko) draw.io/20.3.0 Chrome/104.0.5112.114 Electron/20.1.3 Safari/537.36" etag="2eR11U2X0p8FzwrKCBn0" compressed="false" version="20.3.0" type="device">
  <diagram name="ND0004" id="1CP9VX86ncTdAmcYDIcw">
    <mxGraphModel dx="782" dy="531" grid="1" gridSize="2" guides="1" tooltips="1" connect="1" arrows="1" fold="1" page="1" pageScale="1" pageWidth="1169" pageHeight="827" math="0" shadow="0">
      <root>
        <mxCell id="22vkG-h5v2N9dKBLQ-ZE-0" />
        <mxCell id="22vkG-h5v2N9dKBLQ-ZE-135" value="Label" style="" parent="22vkG-h5v2N9dKBLQ-ZE-0" />
        <object label="%LabelLines%&amp;nbsp; &amp;nbsp; &amp;nbsp; &amp;nbsp; &amp;nbsp; &amp;nbsp;%LabelIndex%" placeholders="1" LabelLines="3" LabelIndex="A" id="0f8P_87Ti_sxjq7LyHEe-31">
          <mxCell style="rounded=0;whiteSpace=wrap;html=1;fillColor=none;strokeColor=#FF0000;fontColor=#FF0000;fontSize=10;align=left;" parent="22vkG-h5v2N9dKBLQ-ZE-135" vertex="1">
            <mxGeometry x="368" y="272" width="80" height="16" as="geometry" />
          </mxCell>
        </object>
        <mxCell id="RWFCiFYVCq9gwU4tBdxi-2" value="Option1" parent="22vkG-h5v2N9dKBLQ-ZE-0" />
        <mxCell id="RWFCiFYVCq9gwU4tBdxi-3" value="" style="endArrow=none;html=1;rounded=0;" parent="RWFCiFYVCq9gwU4tBdxi-2" edge="1">
          <mxGeometry width="50" height="50" relative="1" as="geometry">
            <mxPoint x="384" y="240" as="sourcePoint" />
            <mxPoint x="384" y="176" as="targetPoint" />
          </mxGeometry>
        </mxCell>
        <mxCell id="RWFCiFYVCq9gwU4tBdxi-4" value="" style="endArrow=none;html=1;rounded=0;" parent="RWFCiFYVCq9gwU4tBdxi-2" edge="1">
          <mxGeometry width="50" height="50" relative="1" as="geometry">
            <mxPoint x="384" y="240" as="sourcePoint" />
            <mxPoint x="496" y="240" as="targetPoint" />
          </mxGeometry>
        </mxCell>
        <mxCell id="RWFCiFYVCq9gwU4tBdxi-5" value="" style="endArrow=none;html=1;rounded=0;" parent="RWFCiFYVCq9gwU4tBdxi-2" edge="1">
          <mxGeometry width="50" height="50" relative="1" as="geometry">
            <mxPoint x="672" y="240" as="sourcePoint" />
            <mxPoint x="672" y="176" as="targetPoint" />
          </mxGeometry>
        </mxCell>
        <mxCell id="RWFCiFYVCq9gwU4tBdxi-6" value="" style="endArrow=none;html=1;rounded=0;" parent="RWFCiFYVCq9gwU4tBdxi-2" edge="1">
          <mxGeometry width="50" height="50" relative="1" as="geometry">
            <mxPoint x="560" y="240" as="sourcePoint" />
            <mxPoint x="672" y="240" as="targetPoint" />
          </mxGeometry>
        </mxCell>
        <mxCell id="RWFCiFYVCq9gwU4tBdxi-7" value="" style="endArrow=none;html=1;rounded=0;" parent="RWFCiFYVCq9gwU4tBdxi-2" edge="1">
          <mxGeometry width="50" height="50" relative="1" as="geometry">
            <mxPoint x="496" y="368" as="sourcePoint" />
            <mxPoint x="496" y="240" as="targetPoint" />
          </mxGeometry>
        </mxCell>
        <mxCell id="RWFCiFYVCq9gwU4tBdxi-8" value="" style="endArrow=none;html=1;rounded=0;" parent="RWFCiFYVCq9gwU4tBdxi-2" edge="1">
          <mxGeometry width="50" height="50" relative="1" as="geometry">
            <mxPoint x="496" y="368" as="sourcePoint" />
            <mxPoint x="560" y="368" as="targetPoint" />
          </mxGeometry>
        </mxCell>
        <mxCell id="RWFCiFYVCq9gwU4tBdxi-9" value="" style="endArrow=none;html=1;rounded=0;" parent="RWFCiFYVCq9gwU4tBdxi-2" edge="1">
          <mxGeometry width="50" height="50" relative="1" as="geometry">
            <mxPoint x="560" y="368" as="sourcePoint" />
            <mxPoint x="560" y="240" as="targetPoint" />
          </mxGeometry>
        </mxCell>
        <mxCell id="RWFCiFYVCq9gwU4tBdxi-10" value="" style="group" parent="RWFCiFYVCq9gwU4tBdxi-2" vertex="1" connectable="0">
          <mxGeometry x="400" y="183" width="96" height="51" as="geometry" />
        </mxCell>
        <mxCell id="RWFCiFYVCq9gwU4tBdxi-11" value="" style="triangle;whiteSpace=wrap;html=1;fillColor=#000000;rotation=-180;" parent="RWFCiFYVCq9gwU4tBdxi-10" vertex="1">
          <mxGeometry x="48" width="48" height="51" as="geometry" />
        </mxCell>
        <mxCell id="RWFCiFYVCq9gwU4tBdxi-12" value="" style="triangle;whiteSpace=wrap;html=1;fillColor=#000000;rotation=0;" parent="RWFCiFYVCq9gwU4tBdxi-10" vertex="1">
          <mxGeometry width="48" height="51" as="geometry" />
        </mxCell>
        <mxCell id="RWFCiFYVCq9gwU4tBdxi-16" value="" style="group;rotation=90;" parent="RWFCiFYVCq9gwU4tBdxi-2" vertex="1" connectable="0">
          <mxGeometry x="480" y="278" width="96" height="51" as="geometry" />
        </mxCell>
        <mxCell id="RWFCiFYVCq9gwU4tBdxi-17" value="" style="triangle;whiteSpace=wrap;html=1;fillColor=#000000;rotation=-90;" parent="RWFCiFYVCq9gwU4tBdxi-16" vertex="1">
          <mxGeometry x="24" y="24" width="48" height="51" as="geometry" />
        </mxCell>
        <mxCell id="RWFCiFYVCq9gwU4tBdxi-18" value="" style="triangle;whiteSpace=wrap;html=1;fillColor=#000000;rotation=90;" parent="RWFCiFYVCq9gwU4tBdxi-16" vertex="1">
          <mxGeometry x="24" y="-24" width="48" height="51" as="geometry" />
        </mxCell>
        <mxCell id="RWFCiFYVCq9gwU4tBdxi-19" value="" style="endArrow=none;html=1;rounded=0;exitX=0;exitY=0.5;exitDx=0;exitDy=0;entryX=0;entryY=0.5;entryDx=0;entryDy=0;" parent="RWFCiFYVCq9gwU4tBdxi-2" source="RWFCiFYVCq9gwU4tBdxi-11" target="RWFCiFYVCq9gwU4tBdxi-15" edge="1">
          <mxGeometry width="50" height="50" relative="1" as="geometry">
            <mxPoint x="524" y="358" as="sourcePoint" />
            <mxPoint x="574" y="308" as="targetPoint" />
          </mxGeometry>
        </mxCell>
        <mxCell id="RWFCiFYVCq9gwU4tBdxi-20" value="" style="endArrow=none;html=1;rounded=0;exitX=0;exitY=0.5;exitDx=0;exitDy=0;" parent="RWFCiFYVCq9gwU4tBdxi-2" source="RWFCiFYVCq9gwU4tBdxi-18" edge="1">
          <mxGeometry width="50" height="50" relative="1" as="geometry">
            <mxPoint x="524" y="358" as="sourcePoint" />
            <mxPoint x="528" y="209" as="targetPoint" />
          </mxGeometry>
        </mxCell>
        <mxCell id="RWFCiFYVCq9gwU4tBdxi-21" value="" style="endArrow=none;html=1;rounded=0;" parent="RWFCiFYVCq9gwU4tBdxi-2" edge="1">
          <mxGeometry width="50" height="50" relative="1" as="geometry">
            <mxPoint x="384" y="176" as="sourcePoint" />
            <mxPoint x="672" y="176" as="targetPoint" />
          </mxGeometry>
        </mxCell>
        <mxCell id="RWFCiFYVCq9gwU4tBdxi-14" value="" style="triangle;whiteSpace=wrap;html=1;fillColor=#000000;rotation=-180;" parent="RWFCiFYVCq9gwU4tBdxi-2" vertex="1">
          <mxGeometry x="608" y="183" width="48" height="51" as="geometry" />
        </mxCell>
        <mxCell id="RWFCiFYVCq9gwU4tBdxi-15" value="" style="triangle;whiteSpace=wrap;html=1;fillColor=#000000;rotation=0;" parent="RWFCiFYVCq9gwU4tBdxi-2" vertex="1">
          <mxGeometry x="560" y="183" width="48" height="51" as="geometry" />
        </mxCell>
        <object label="Symbol" Width="18" Height="12" UoM="mm" id="22vkG-h5v2N9dKBLQ-ZE-138">
          <mxCell style="" parent="22vkG-h5v2N9dKBLQ-ZE-0" />
        </object>
        <mxCell id="0f8P_87Ti_sxjq7LyHEe-0" value="" style="endArrow=none;html=1;rounded=0;" parent="22vkG-h5v2N9dKBLQ-ZE-138" edge="1">
          <mxGeometry width="50" height="50" relative="1" as="geometry">
            <mxPoint x="384" y="240" as="sourcePoint" />
            <mxPoint x="384" y="176" as="targetPoint" />
          </mxGeometry>
        </mxCell>
        <mxCell id="0f8P_87Ti_sxjq7LyHEe-1" value="" style="endArrow=none;html=1;rounded=0;" parent="22vkG-h5v2N9dKBLQ-ZE-138" edge="1">
          <mxGeometry width="50" height="50" relative="1" as="geometry">
            <mxPoint x="384" y="240" as="sourcePoint" />
            <mxPoint x="496" y="240" as="targetPoint" />
          </mxGeometry>
        </mxCell>
        <mxCell id="0f8P_87Ti_sxjq7LyHEe-2" value="" style="endArrow=none;html=1;rounded=0;" parent="22vkG-h5v2N9dKBLQ-ZE-138" edge="1">
          <mxGeometry width="50" height="50" relative="1" as="geometry">
            <mxPoint x="672" y="240" as="sourcePoint" />
            <mxPoint x="672" y="176" as="targetPoint" />
          </mxGeometry>
        </mxCell>
        <mxCell id="0f8P_87Ti_sxjq7LyHEe-3" value="" style="endArrow=none;html=1;rounded=0;" parent="22vkG-h5v2N9dKBLQ-ZE-138" edge="1">
          <mxGeometry width="50" height="50" relative="1" as="geometry">
            <mxPoint x="560" y="240" as="sourcePoint" />
            <mxPoint x="672" y="240" as="targetPoint" />
          </mxGeometry>
        </mxCell>
        <mxCell id="0f8P_87Ti_sxjq7LyHEe-4" value="" style="endArrow=none;html=1;rounded=0;" parent="22vkG-h5v2N9dKBLQ-ZE-138" edge="1">
          <mxGeometry width="50" height="50" relative="1" as="geometry">
            <mxPoint x="496" y="368" as="sourcePoint" />
            <mxPoint x="496" y="240" as="targetPoint" />
          </mxGeometry>
        </mxCell>
        <mxCell id="0f8P_87Ti_sxjq7LyHEe-5" value="" style="endArrow=none;html=1;rounded=0;" parent="22vkG-h5v2N9dKBLQ-ZE-138" edge="1">
          <mxGeometry width="50" height="50" relative="1" as="geometry">
            <mxPoint x="496" y="368" as="sourcePoint" />
            <mxPoint x="560" y="368" as="targetPoint" />
          </mxGeometry>
        </mxCell>
        <mxCell id="0f8P_87Ti_sxjq7LyHEe-6" value="" style="endArrow=none;html=1;rounded=0;" parent="22vkG-h5v2N9dKBLQ-ZE-138" edge="1">
          <mxGeometry width="50" height="50" relative="1" as="geometry">
            <mxPoint x="560" y="368" as="sourcePoint" />
            <mxPoint x="560" y="240" as="targetPoint" />
          </mxGeometry>
        </mxCell>
        <mxCell id="0f8P_87Ti_sxjq7LyHEe-14" value="" style="group" parent="22vkG-h5v2N9dKBLQ-ZE-138" vertex="1" connectable="0">
          <mxGeometry x="400" y="183" width="96" height="51" as="geometry" />
        </mxCell>
        <mxCell id="0f8P_87Ti_sxjq7LyHEe-8" value="" style="triangle;whiteSpace=wrap;html=1;fillColor=none;rotation=-180;" parent="0f8P_87Ti_sxjq7LyHEe-14" vertex="1">
          <mxGeometry x="48" width="48" height="51" as="geometry" />
        </mxCell>
        <mxCell id="0f8P_87Ti_sxjq7LyHEe-9" value="" style="triangle;whiteSpace=wrap;html=1;fillColor=none;rotation=0;" parent="0f8P_87Ti_sxjq7LyHEe-14" vertex="1">
          <mxGeometry width="48" height="51" as="geometry" />
        </mxCell>
        <mxCell id="0f8P_87Ti_sxjq7LyHEe-15" value="" style="group" parent="22vkG-h5v2N9dKBLQ-ZE-138" vertex="1" connectable="0">
          <mxGeometry x="560" y="183" width="96" height="51" as="geometry" />
        </mxCell>
        <mxCell id="0f8P_87Ti_sxjq7LyHEe-16" value="" style="triangle;whiteSpace=wrap;html=1;fillColor=none;rotation=-180;" parent="0f8P_87Ti_sxjq7LyHEe-15" vertex="1">
          <mxGeometry x="48" width="48" height="51" as="geometry" />
        </mxCell>
        <mxCell id="0f8P_87Ti_sxjq7LyHEe-17" value="" style="triangle;whiteSpace=wrap;html=1;fillColor=none;rotation=0;" parent="0f8P_87Ti_sxjq7LyHEe-15" vertex="1">
          <mxGeometry width="48" height="51" as="geometry" />
        </mxCell>
        <mxCell id="0f8P_87Ti_sxjq7LyHEe-18" value="" style="group;rotation=90;" parent="22vkG-h5v2N9dKBLQ-ZE-138" vertex="1" connectable="0">
          <mxGeometry x="480" y="278" width="96" height="51" as="geometry" />
        </mxCell>
        <mxCell id="0f8P_87Ti_sxjq7LyHEe-19" value="" style="triangle;whiteSpace=wrap;html=1;fillColor=none;rotation=-90;" parent="0f8P_87Ti_sxjq7LyHEe-18" vertex="1">
          <mxGeometry x="24" y="24" width="48" height="51" as="geometry" />
        </mxCell>
        <mxCell id="0f8P_87Ti_sxjq7LyHEe-20" value="" style="triangle;whiteSpace=wrap;html=1;fillColor=none;rotation=90;" parent="0f8P_87Ti_sxjq7LyHEe-18" vertex="1">
          <mxGeometry x="24" y="-24" width="48" height="51" as="geometry" />
        </mxCell>
        <mxCell id="0f8P_87Ti_sxjq7LyHEe-21" value="" style="endArrow=none;html=1;rounded=0;exitX=0;exitY=0.5;exitDx=0;exitDy=0;entryX=0;entryY=0.5;entryDx=0;entryDy=0;" parent="22vkG-h5v2N9dKBLQ-ZE-138" source="0f8P_87Ti_sxjq7LyHEe-8" target="0f8P_87Ti_sxjq7LyHEe-17" edge="1">
          <mxGeometry width="50" height="50" relative="1" as="geometry">
            <mxPoint x="524" y="358" as="sourcePoint" />
            <mxPoint x="574" y="308" as="targetPoint" />
          </mxGeometry>
        </mxCell>
        <mxCell id="0f8P_87Ti_sxjq7LyHEe-22" value="" style="endArrow=none;html=1;rounded=0;exitX=0;exitY=0.5;exitDx=0;exitDy=0;" parent="22vkG-h5v2N9dKBLQ-ZE-138" source="0f8P_87Ti_sxjq7LyHEe-20" edge="1">
          <mxGeometry width="50" height="50" relative="1" as="geometry">
            <mxPoint x="524" y="358" as="sourcePoint" />
            <mxPoint x="528" y="209" as="targetPoint" />
          </mxGeometry>
        </mxCell>
        <mxCell id="la5HrbHQ-ApavcQv78ac-0" value="" style="endArrow=none;html=1;rounded=0;" parent="22vkG-h5v2N9dKBLQ-ZE-138" edge="1">
          <mxGeometry width="50" height="50" relative="1" as="geometry">
            <mxPoint x="384" y="176" as="sourcePoint" />
            <mxPoint x="672" y="176" as="targetPoint" />
          </mxGeometry>
        </mxCell>
        <mxCell id="22vkG-h5v2N9dKBLQ-ZE-124" value="Connection" style="" parent="22vkG-h5v2N9dKBLQ-ZE-0" />
        <object label="Connection" PipingConnector="Y" LabelConnector="N" SignalConnector="N" Direction="0" id="0f8P_87Ti_sxjq7LyHEe-32">
          <mxCell style="vsdxID=1407;fillColor=none;gradientColor=none;shape=stencil(rVFbDsIgEDwNnyQU4glqvcfGblsilmZBS28vZGMsxg9j/JvZmX1kR5g2TLCg0CpE8hdcbR8nYY5CaztPSDZmJEwnTDt4wpH8be6ZL1CcBV39vUxI3KdKh1YbswPTEzuBzlmiVGmKau9zUKM+jlJJQrJBko8QrZ+rrQ5oRJnXyMHBWElhRVx25ebnw/5zVvPFWRm83jxY5zilvf4eSy5xpKZ7AA==);strokeColor=#00ff00;strokeWidth=1;points=[[0.5,0.5,0,0,0]];labelBackgroundColor=none;rounded=0;html=1;whiteSpace=wrap;aspect=fixed;noLabel=1;snapToPoint=1;container=0;fontSize=16;" parent="22vkG-h5v2N9dKBLQ-ZE-124" vertex="1">
            <mxGeometry x="666" y="202" width="12" height="12" as="geometry" />
          </mxCell>
        </object>
        <object label="Connection" PipingConnector="Y" LabelConnector="N" SignalConnector="N" Direction="90" id="0f8P_87Ti_sxjq7LyHEe-33">
          <mxCell style="vsdxID=1407;fillColor=none;gradientColor=none;shape=stencil(rVFbDsIgEDwNnyQU4glqvcfGblsilmZBS28vZGMsxg9j/JvZmX1kR5g2TLCg0CpE8hdcbR8nYY5CaztPSDZmJEwnTDt4wpH8be6ZL1CcBV39vUxI3KdKh1YbswPTEzuBzlmiVGmKau9zUKM+jlJJQrJBko8QrZ+rrQ5oRJnXyMHBWElhRVx25ebnw/5zVvPFWRm83jxY5zilvf4eSy5xpKZ7AA==);strokeColor=#00ff00;strokeWidth=1;points=[[0.5,0.5,0,0,0]];labelBackgroundColor=none;rounded=0;html=1;whiteSpace=wrap;aspect=fixed;noLabel=1;snapToPoint=1;container=0;fontSize=16;" parent="22vkG-h5v2N9dKBLQ-ZE-124" vertex="1">
            <mxGeometry x="522" y="362" width="12" height="12" as="geometry" />
          </mxCell>
        </object>
        <object label="Connection" PipingConnector="Y" LabelConnector="N" SignalConnector="N" Direction="180" id="0f8P_87Ti_sxjq7LyHEe-34">
          <mxCell style="vsdxID=1407;fillColor=none;gradientColor=none;shape=stencil(rVFbDsIgEDwNnyQU4glqvcfGblsilmZBS28vZGMsxg9j/JvZmX1kR5g2TLCg0CpE8hdcbR8nYY5CaztPSDZmJEwnTDt4wpH8be6ZL1CcBV39vUxI3KdKh1YbswPTEzuBzlmiVGmKau9zUKM+jlJJQrJBko8QrZ+rrQ5oRJnXyMHBWElhRVx25ebnw/5zVvPFWRm83jxY5zilvf4eSy5xpKZ7AA==);strokeColor=#00ff00;strokeWidth=1;points=[[0.5,0.5,0,0,0]];labelBackgroundColor=none;rounded=0;html=1;whiteSpace=wrap;aspect=fixed;noLabel=1;snapToPoint=1;container=0;fontSize=16;" parent="22vkG-h5v2N9dKBLQ-ZE-124" vertex="1">
            <mxGeometry x="378" y="202" width="12" height="12" as="geometry" />
          </mxCell>
        </object>
        <mxCell id="22vkG-h5v2N9dKBLQ-ZE-136" value="Origo" style="locked=1;" parent="22vkG-h5v2N9dKBLQ-ZE-0" />
        <object label="origo" id="0f8P_87Ti_sxjq7LyHEe-30">
          <mxCell style="vsdxID=1407;fillColor=none;gradientColor=none;shape=stencil(rVFbDsIgEDwNnyQU4glqvcfGblsilmZBS28vZGMsxg9j/JvZmX1kR5g2TLCg0CpE8hdcbR8nYY5CaztPSDZmJEwnTDt4wpH8be6ZL1CcBV39vUxI3KdKh1YbswPTEzuBzlmiVGmKau9zUKM+jlJJQrJBko8QrZ+rrQ5oRJnXyMHBWElhRVx25ebnw/5zVvPFWRm83jxY5zilvf4eSy5xpKZ7AA==);strokeColor=#ff0000;strokeWidth=1;points=[[0.5,0.5,0,0,0]];labelBackgroundColor=none;rounded=0;html=1;whiteSpace=wrap;aspect=fixed;noLabel=1;snapToPoint=1;" parent="22vkG-h5v2N9dKBLQ-ZE-136" vertex="1">
            <mxGeometry x="524" y="205" width="8" height="8" as="geometry" />
          </mxCell>
        </object>
      </root>
    </mxGraphModel>
  </diagram>
</mxfile>
